<?xml version="1.0" encoding="UTF-8"?>
<svg xmlns="http://www.w3.org/2000/svg" xmlns:xlink="http://www.w3.org/1999/xlink" width="612pt" height="586pt" viewBox="0 0 612 586" version="1.1">
<g id="surface1">
<path style=" stroke:none;fill-rule:evenodd;fill:rgb(17.999268%,18.798828%,57.299805%);fill-opacity:1;" d="M 235.523438 426.242188 C 144.917969 402.195313 131.195313 347.519531 182.203125 289.632813 L 153.554688 246.703125 C 66.898438 336.070313 119.371094 422.710938 235.523438 426.242188 Z M 488.441406 258.402344 C 512.921875 348.890625 472.429688 388.113281 396.796875 372.882813 L 373.945313 419.160156 C 494.664063 449.519531 543.460938 360.757813 488.441406 258.402344 Z M 216.039063 123.496094 C 282.164063 57.054688 336.378906 72.507813 361.003906 145.625 L 412.507813 142.277344 C 378.441406 22.550781 277.171875 24.671875 216.039063 123.496094 "/>
<path style="fill:none;stroke-width:2.16;stroke-linecap:butt;stroke-linejoin:miter;stroke:rgb(13.699341%,12.199402%,12.5%);stroke-opacity:1;stroke-miterlimit:2.6131;" d="M 2355.234375 1597.578125 C 1449.179688 1838.046875 1311.953125 2384.804688 1822.03125 2963.671875 L 1535.546875 3392.96875 C 668.984375 2499.296875 1193.710938 1632.890625 2355.234375 1597.578125 Z M 4884.414063 3275.976563 C 5129.21875 2371.09375 4724.296875 1978.867188 3967.96875 2131.171875 L 3739.453125 1668.398438 C 4946.640625 1364.804688 5434.609375 2252.421875 4884.414063 3275.976563 Z M 2160.390625 4625.039063 C 2821.640625 5289.453125 3363.789063 5134.921875 3610.039063 4403.75 L 4125.078125 4437.226563 C 3784.414063 5634.492188 2771.71875 5613.28125 2160.390625 4625.039063 Z M 2160.390625 4625.039063 " transform="matrix(0.1,0,0,-0.1,0,586)"/>
<path style=" stroke:none;fill-rule:evenodd;fill:rgb(81.999207%,82.699585%,83.099365%);fill-opacity:1;" d="M 346.558594 457.480469 C 346.542969 457.46875 346.527344 457.457031 346.511719 457.449219 C 346.5 457.460938 346.488281 457.476563 346.480469 457.488281 C 344.21875 456.023438 341.980469 454.546875 339.746094 453.0625 C 294.652344 423.453125 255.550781 389.117188 222.371094 350.109375 C 185.230469 306.984375 156.3125 259.199219 135.238281 206.960938 C 134.914063 206.171875 134.589844 205.382813 134.269531 204.589844 C 134.273438 204.585938 134.277344 204.585938 134.28125 204.582031 C 134.277344 204.574219 134.277344 204.566406 134.273438 204.558594 C 134.285156 204.554688 134.296875 204.546875 134.304688 204.539063 C 134.300781 204.53125 134.296875 204.523438 134.292969 204.511719 C 135.753906 203.765625 137.214844 203.027344 138.675781 202.292969 C 186.382813 177.976563 235.171875 161.078125 285.019531 151.507813 C 343.234375 139.964844 401.371094 138.675781 459.433594 147.152344 C 459.429688 147.171875 459.429688 147.191406 459.429688 147.210938 C 459.445313 147.210938 459.464844 147.214844 459.480469 147.214844 C 459.34375 149.90625 459.183594 152.585938 459.015625 155.257813 C 455.996094 207.765625 446.238281 257.589844 429.820313 304.753906 C 410.714844 360.746094 382.820313 411.570313 346.558594 457.480469 Z M 373.59375 419.171875 C 373.578125 419.164063 373.5625 419.160156 373.546875 419.152344 C 373.542969 419.164063 373.535156 419.179688 373.527344 419.191406 C 371.398438 418.375 369.285156 417.546875 367.179688 416.707031 C 324.644531 400.082031 286.242188 378.492188 251.933594 351.996094 C 213.617188 322.789063 181.296875 288.277344 154.691406 248.707031 C 154.285156 248.109375 153.878906 247.507813 153.476563 246.90625 C 153.480469 246.90625 153.480469 246.902344 153.484375 246.902344 C 153.480469 246.894531 153.476563 246.890625 153.472656 246.882813 C 153.480469 246.878906 153.488281 246.871094 153.496094 246.863281 C 153.492188 246.855469 153.488281 246.847656 153.480469 246.84375 C 154.5625 245.96875 155.640625 245.097656 156.722656 244.234375 C 191.976563 215.738281 229.421875 193.199219 269.027344 176.542969 C 315.222656 156.785156 363.144531 145.53125 412.71875 142.382813 C 412.71875 142.398438 412.722656 142.414063 412.726563 142.429688 C 412.738281 142.429688 412.753906 142.429688 412.769531 142.425781 C 413.128906 144.679688 413.464844 146.925781 413.789063 149.171875 C 420.488281 193.1875 421.136719 236.160156 415.800781 278.097656 C 409.785156 327.816406 395.585938 374.796875 373.59375 419.171875 "/>
<path style=" stroke:none;fill-rule:evenodd;fill:rgb(17.999268%,18.798828%,57.299805%);fill-opacity:1;" d="M 257.277344 201.652344 L 308.738281 201.652344 C 322.8125 205.136719 331.308594 212.515625 335.0625 221.09375 C 337.078125 225.695313 337.777344 230.695313 337.277344 235.644531 C 336.773438 240.65625 335.019531 245.628906 332.144531 250.101563 C 325.980469 259.683594 314.59375 266.824219 299.105469 267.09375 C 290.050781 265.523438 285.488281 275.175781 293.160156 282.578125 L 344.722656 330.40625 L 257.277344 330.40625 C 254.65625 330.40625 252.511719 328.261719 252.511719 325.636719 L 252.511719 206.421875 C 252.511719 203.796875 254.65625 201.652344 257.277344 201.652344 Z M 343.511719 201.652344 L 379.355469 201.652344 C 381.980469 201.652344 384.125 203.796875 384.125 206.421875 L 384.125 325.636719 C 384.125 328.261719 381.980469 330.40625 379.355469 330.40625 L 370.980469 330.40625 L 318.5625 281.785156 C 331.171875 277.554688 340.898438 269.503906 347.171875 259.75 C 351.558594 252.929688 354.242188 245.238281 355.035156 237.390625 C 355.832031 229.484375 354.691406 221.433594 351.421875 213.960938 C 349.507813 209.589844 346.878906 205.4375 343.511719 201.652344 "/>
<path style="fill:none;stroke-width:2.16;stroke-linecap:butt;stroke-linejoin:miter;stroke:rgb(13.699341%,12.199402%,12.5%);stroke-opacity:1;stroke-miterlimit:2.6131;" d="M 2572.773438 3843.476563 L 3087.382813 3843.476563 C 3228.125 3808.632813 3313.085938 3734.84375 3350.625 3649.0625 C 3370.78125 3603.046875 3377.773438 3553.046875 3372.773438 3503.554688 C 3367.734375 3453.4375 3350.195313 3403.710938 3321.445313 3358.984375 C 3259.804688 3263.164063 3145.9375 3191.757813 2991.054688 3189.0625 C 2900.507813 3204.765625 2854.882813 3108.242188 2931.601563 3034.21875 L 3447.226563 2555.9375 L 2572.773438 2555.9375 C 2546.5625 2555.9375 2525.117188 2577.382813 2525.117188 2603.632813 L 2525.117188 3795.78125 C 2525.117188 3822.03125 2546.5625 3843.476563 2572.773438 3843.476563 Z M 3435.117188 3843.476563 L 3793.554688 3843.476563 C 3819.804688 3843.476563 3841.25 3822.03125 3841.25 3795.78125 L 3841.25 2603.632813 C 3841.25 2577.382813 3819.804688 2555.9375 3793.554688 2555.9375 L 3709.804688 2555.9375 L 3185.625 3042.148438 C 3311.71875 3084.453125 3408.984375 3164.960938 3471.71875 3262.5 C 3515.585938 3330.703125 3542.421875 3407.617188 3550.351563 3486.09375 C 3558.320313 3565.15625 3546.914063 3645.664063 3514.21875 3720.390625 C 3495.078125 3764.101563 3468.789063 3805.625 3435.117188 3843.476563 Z M 3435.117188 3843.476563 " transform="matrix(0.1,0,0,-0.1,0,586)"/>
<path style=" stroke:none;fill-rule:evenodd;fill:rgb(17.999268%,18.798828%,57.299805%);fill-opacity:1;" d="M 151.125 538.605469 L 151.125 466.851563 L 174.605469 466.851563 L 174.605469 538.605469 L 151.125 538.605469 "/>
<path style=" stroke:none;fill-rule:evenodd;fill:rgb(17.999268%,18.798828%,57.299805%);fill-opacity:1;" d="M 211.375 497.679688 L 221.851563 497.679688 C 225.523438 497.679688 228.054688 497.179688 229.449219 496.199219 C 230.847656 495.203125 231.546875 493.472656 231.546875 491.011719 C 231.546875 488.484375 230.847656 486.722656 229.449219 485.722656 C 228.054688 484.742188 225.324219 484.242188 221.269531 484.242188 L 211.375 484.242188 Z M 188.625 538.605469 L 188.625 466.851563 L 222.964844 466.851563 C 233.722656 466.851563 241.390625 468.464844 245.996094 471.671875 C 250.585938 474.882813 252.878906 480.171875 252.878906 487.503906 C 252.878906 491.894531 251.933594 495.519531 250.054688 498.410156 C 248.175781 501.304688 245.265625 503.601563 241.339844 505.28125 C 245.332031 506.128906 248.242188 507.792969 250.054688 510.285156 C 251.882813 512.761719 252.847656 516.40625 252.980469 521.210938 L 253.363281 531.203125 C 253.363281 531.273438 253.378906 531.355469 253.414063 531.4375 C 253.511719 534.296875 254.195313 535.792969 255.457031 535.925781 L 255.457031 538.605469 L 232.226563 538.605469 C 231.8125 536.875 231.496094 535.378906 231.277344 534.097656 C 231.0625 532.816406 230.964844 531.820313 230.964844 531.105469 L 230.964844 523.9375 C 230.964844 520.246094 230.230469 517.636719 228.769531 516.121094 C 227.304688 514.609375 224.777344 513.859375 221.167969 513.859375 L 211.375 513.859375 L 211.375 538.605469 L 188.625 538.605469 "/>
<path style=" stroke:none;fill-rule:evenodd;fill:rgb(17.999268%,18.798828%,57.299805%);fill-opacity:1;" d="M 311.300781 510.785156 L 333.132813 510.785156 C 332.484375 520.230469 329.160156 527.5625 323.140625 532.785156 C 317.136719 537.988281 309.003906 540.601563 298.742188 540.601563 C 287.234375 540.601563 278.191406 537.222656 271.605469 530.488281 C 265.003906 523.753906 261.710938 514.527344 261.710938 502.785156 C 261.710938 491.09375 264.96875 481.882813 271.503906 475.113281 C 278.039063 468.363281 286.9375 464.988281 298.210938 464.988281 C 308.605469 464.988281 316.769531 467.5 322.738281 472.519531 C 328.691406 477.527344 332.035156 484.710938 332.75 494.023438 L 310.683594 494.023438 C 310.351563 490.347656 309.171875 487.585938 307.125 485.707031 C 305.078125 483.84375 302.203125 482.914063 298.496094 482.914063 C 293.972656 482.914063 290.59375 484.558594 288.335938 487.851563 C 286.074219 491.160156 284.941406 496.132813 284.941406 502.785156 C 284.941406 509.320313 286.140625 514.261719 288.550781 517.601563 C 290.945313 520.945313 294.46875 522.625 299.125 522.625 C 302.683594 522.625 305.527344 521.59375 307.621094 519.546875 C 309.71875 517.503906 310.949219 514.59375 311.300781 510.785156 "/>
<path style=" stroke:none;fill-rule:evenodd;fill:rgb(17.999268%,18.798828%,57.299805%);fill-opacity:1;" d="M 357.910156 538.605469 L 357.910156 485.757813 L 337.257813 485.757813 L 337.257813 466.851563 L 401.179688 466.851563 L 401.179688 485.757813 L 380.960938 485.757813 L 380.960938 538.605469 L 357.910156 538.605469 "/>
<path style=" stroke:none;fill-rule:evenodd;fill:rgb(17.999268%,18.798828%,57.299805%);fill-opacity:1;" d="M 455.589844 510.785156 L 477.425781 510.785156 C 476.777344 520.230469 473.449219 527.5625 467.429688 532.785156 C 461.425781 537.988281 453.296875 540.601563 443.035156 540.601563 C 431.527344 540.601563 422.480469 537.222656 415.898438 530.488281 C 409.296875 523.753906 406.003906 514.527344 406.003906 502.785156 C 406.003906 491.09375 409.261719 481.882813 415.796875 475.113281 C 422.332031 468.363281 431.230469 464.988281 442.503906 464.988281 C 452.898438 464.988281 461.0625 467.5 467.03125 472.519531 C 472.984375 477.527344 476.328125 484.710938 477.042969 494.023438 L 454.976563 494.023438 C 454.644531 490.347656 453.460938 487.585938 451.417969 485.707031 C 449.371094 483.84375 446.496094 482.914063 442.785156 482.914063 C 438.261719 482.914063 434.886719 484.558594 432.625 487.851563 C 430.363281 491.160156 429.234375 496.132813 429.234375 502.785156 C 429.234375 509.320313 430.429688 514.261719 432.84375 517.601563 C 435.234375 520.945313 438.761719 522.625 443.417969 522.625 C 446.976563 522.625 449.820313 521.59375 451.914063 519.546875 C 454.011719 517.503906 455.242188 514.59375 455.589844 510.785156 "/>
</g>
</svg>
